<?xml version="1.0" encoding="utf-8"?>
<!-- Generator: Adobe Illustrator 19.0.0, SVG Export Plug-In . SVG Version: 6.00 Build 0)  -->
<svg version="1.1" id="Layer_1" xmlns="http://www.w3.org/2000/svg" xmlns:xlink="http://www.w3.org/1999/xlink" x="0px" y="0px"
	 viewBox="0 0 1498 2400.1" style="enable-background:new 0 0 1498 2400.1;" xml:space="preserve">
<style type="text/css">
	.st0{fill-rule:evenodd;clip-rule:evenodd;}
</style>
<path class="st0" d="M1497,465c-1.3-3.3-2.8-2.9-5-5c-19,0.3-28.4,17.4-50,12c-19.1-4.8-30-18.3-51-22c-12.7,1.7-25.3,3.3-38,5
	c-10.6,2.3-30,1-39-1c-4.7,0-9.3,0-14,0c-12.9-2.9-28.6-3.1-41-6c-13.8-3.3-28.3-0.9-41-6c-8.6-3.4-17-13-25-18
	c-14.2-8.8-29.1-15-45-22c-17-7.5-33.4-17.9-52-24c-25.9-8.5-56.2-6.4-83-14c-8.3-2.7-16.7-5.3-25-8c-4.4-1.9-9.5-6.4-14-8
	c-14.2-5.1-32.1-0.6-45-6c-9.6-4-12.4-11.3-19-18c3.5-31.6,30.2-29.3,57-38c9.6-3.1,16.6-8.3,24-13c4.3-15.8,2.8-17.8-5-29
	c-12.2-1.3-24.5,5.1-34-2c-23.3-17.6-9.1-89.9-17-125c-14-62.3-27.1-85.2-81-108c-14.4-6.1-27.6-9-50-9c-5.3,0-10.7,0-16,0
	c-31.9,7.1-78.5,12.3-95,34c-13.1,17.2-20.3,36.7-27,61c-4.1,14.9-4.4,28.9-9,43c-3.3,10.1-14.2,22.3-11,37
	c4.6,20.9,15.7,33.3,23,50c4.8,11,3.2,18.8,4,32c0.2,2.6,10.1,17.4,12,21c8.3,15.9,14.8,30.5,25,44c5.2,6.9,13.8,9.9,21,15
	c2.8,2,3.8,6.4,6,9c-0.4,18.3-20,20.1-31,28c-4.2,3-5.4,8.5-9,12c-5.3,5.2-22.7,10.6-30,15c-13.2,8-27.7,14.6-41,23
	c-4.4,2.8-8.9,8-14,10c-11.5,4.4-22.1,4.9-32,10c-17.7,9.2-32.9,20.3-43,37c-3.7,6.2-3.3,17-7,23c-5.7,5-11.3,10-17,15
	c-14.2,18.8-29.8,36.2-44,55c-8.4,11.1-29.4,26.1-43,32c-11.7,5.1-23.8,6.7-34,13c-13.5,8.3-27.6,21.6-36,35c-4,6.4-5.3,15.1-10,21
	c-2.5,4.9-11.4,5.1-16,8c-8.1,5-35.6,32.6-49,15c-6.8,1.5-10.3,10.1-14,15c-5.4,7.2-19,19.8-26,26c-22.9,20.4-47.4,39.5-72,58
	c-11,8.3-19.3,21.6-31,29c-11.6,7.4-25.8,7.5-42,11c-14.6,3.2-33-3.8-46,1c-3,1.1-5.5,5.2-8,7c-5.9,4.2-11.3,7.7-17,12
	c-8.3,8.7-16.7,17.3-25,26c0.3,12.7,7.5,24.1,0,32c0,8,0,16,0,24c4.3,3.7,8.7,7.3,13,11c12.6,12.3,25,26.3,43,33
	c5,1.9,19.3,5.7,25,2c4.4,2.6,3.3,9.5,5,15c3.3,11,5.9,22.9,10,34c7.2,19.5,11.6,39.5,18,61c1.9,6.2,6.5,16.7,4,26
	c-4.9,18.4-19.1,33.1-31,45c-3.7,3.3-7.3,6.7-11,10c-3.2,4.3-7.3,8.6-10,13c-3,4.8-3.6,10.8-7,15c0,0.3,0,0.7,0,1
	c31.2-1.2,36.1-41.6,63-44c1.8,11.7,7.2,23.6,11,34c7.3,19.6,12.7,40,19,59c19.2,57.6,36.1,115.4,55,172c11.4,34.1,19.7,66.9,31,101
	c50.1,150.8,96.6,305.2,147,456c28.8,86,53.5,172.9,82,258c7.5,22.4,13.8,44.6,21,66c4.1,12.2,5,28.2,12,38c0,1,0,2,0,3
	c-3.5-2.1-5.5-4.8-10-6c0-0.3,0-0.7,0-1c-0.3,0-0.7,0-1,0c0,0.3,0,0.7,0,1c-6.2,2.7-7.1,12-14,15c-11.7,5.1-28.7,1.3-41,6
	c-3,1.2-5.4,4.3-8,6c-0.5,2.1-0.9,3.6-2,5c0,0.3,0,0.7,0,1c18.4-0.1,41.5,2.6,58-1c8.4-1.8,19.8,0.6,27-1c12.2-2.7,25.2,0.4,36-2
	c5.3,0,10.7,0,16,0c14.5-3.2,32.7-1.8,47-5c6.7-0.3,13.3-0.7,20-1c19.1-4.3,41.3-3.7,60-8c23.6-5.4,47.8-4.6,70-10
	c8-2,18.7-0.1,25-4c17.9-4.9,3.1-44.4,0-55c-0.3-4.3-0.7-8.7-1-13c-4.2-19.1-12.1-39.1-18-60c-9.3-33.2-8.8-107.3,0-141
	c6.6-25.2,11-50,17-76c4.2-18.1,0.6-49.7-3-65c-1-8-2-16-3-24c-7.6-28.1-12.4-59.4-20-87c-5.2-18.8,6.8-35.4,2-54
	c-3.9-14.9-16.3-22.9-21-38c-3.2-10.3-1.5-23-4-34c0-6,0-12,0-18c-1-6-2-12-3-18c0.9-3.8,8.2-11.7,10-17c5.3-16,2.8-36.7,9-52
	c6.2-15.3,18.3-26.8,25-42c8.8-20.1,12.8-43.3,19-66c2.3-13.7,4.7-27.3,7-41c2.9-8.2,8.1-18.2,11-27c4.8-14.4,7-30.1,11-44
	c9.2-32.1,14.6-62.5,35-83c2.4,7,0.1,15.4,2,24c4.2,19.5,4.2,40.4,18,50c-17.2,42,6.6,96,15,132c4.5,19.4,1,45.7,1,67c0,6,0,12,0,18
	c1.4,6.4,1.1,14.3,3,21c3.3,10.3,6.7,20.7,10,31c3.9,14,1.5,28.1,5,43c2.4,10.2,4.7,22.9,7,32c2,8.1-9.3,21.4-6,36
	c2.9,12.9,5.1,26.3,8,39c-0.3,9.3-0.7,18.7-1,28c2,8.8,4.5,25.7,2,37c-4.8,21.5-2,43.9-7,66c-2.3,10-4.8,37.4-2,50
	c1.7,12.7,3.3,25.3,5,38c7.3,27.3,14.7,54.7,22,82c3.2,11.5,2.3,24.1,5,36c2.6,11.6-0.9,28.7-3,38c-1,7.7-2,15.3-3,23
	c-6.1,21.8-11.6,44.8-18,66c-3,14.7-6,29.3-9,44c-1.4,6.1,0.8,14.2-2,19c-0.2,14.7,7.2,13.8,17,18c16.5,7,38.8,7.3,59,12
	c5,0.3,10,0.7,15,1c26.9,6.7,48.9,17.6,74,26c28.8,9.6,58.7,12.4,89,21c22.2,6.3,43.2,14.8,71,14c0.5-3.3,1.8-6.3,0-9
	c-3.5-9.6-16.7-9.1-26-13c-9.9-4.2-10.3-8.3-14-19c-5.1,0-8.2,0.7-11,3c-9.1-1.7-14.4-11.4-20-17c-14.2-14.2-28.8-27.8-43-42
	c-21.4-21.4-44.6-41.6-63-66c-6.6-8.7-19.5-16.9-24-27c-4.8-10.7-4-39.6-4-55c0-30.6,4.4-59,11-84c2.7-10.2,2.2-18.8,5-29
	c6.2-22,9.3-47.1,15-70c0.7-7.3,1.3-14.7,2-22c3.4-14.9,5.5-40.3,2-57c-3.2-15.3-0.2-37.9-8-48c0-1,0-2,0-3c5.2,2.7,10.8,6.3,17,8
	c13.7,3.7,22.6-3.2,28-11c19.4-28.1,3.6-60.6-4-90c-1.6-6.1-2.7-18.7-1-26c4.2-17.8,15.7-29.7,21-47c11.2-36.7-1.9-65.7-28-76
	c0.4-35.7-1.4-70.6,8-98c2.6-7.5,10.7-10.7,13-19c3.9-13.9-5.8-20.6-11-26c-1.1-2.9,2.9-11.3,4-16c0.3-12.3,0.7-24.7,1-37
	c2.1-9,7.9-15.7,10-23c2.6-9-6.7-27.5-10-32c0-0.3,0-0.7,0-1c34.3,4.2,49.5-18.2,61-40c3.5-6.6,11.7-18.8,9-30
	c-4.1-17.3-5.8-38.4-10-56c-0.3-4.7-0.7-9.3-1-14c-3.7-15.1-3.9-32.1-8-48c-8.5-32.5-14.9-65.2-27-93c-7.5-17.3-18.1-47.4-31-58
	c0-0.3,0-0.7,0-1c27.4,0,86.2,4,81-29c-3.4-21.4-23.5-12.9-33-26c-6.7-9.2-6.6-22.2-11-34c-3-8.1-8.7-13.5-13-20
	c-1.1-0.9-0.1,0.1-1-1c18.4-11,39.7-27.7,51-46c2.5-4.1,5-18.6,7-21c2.3-2.8,17.9-10.3,22-13c14.6-9.7,28.8-20.6,43-31
	c14.1-10.4,26.1-24.5,40-35c27.3-20.6,58.4-52.7,79-80c10-13.2,25.3-22.1,35-36c9.2-13.2,13.9-28.6,18-47c2.1-9.3-2.5-15.9,0-24
	c3.9-12.9,14.6-21.6,21-32c6.1-9.8,7.4-23,14-32c10.7-14.6,31.9-22.9,49-31C1497.9,467.5,1497.9,466.3,1497,465z M683,922
	c-3.8,2.9-6.1,8.1-9,12c-5.7,7.7-13.3,15.2-19,23c-1.9,2.6-4.1,7.6-7,9c-2.3,0-4.7,0-7,0c-4.3,1.2-10.8,3.3-14,6
	c-6.5,5.4-2.4,11.9-4,18c-1.7,6.4-12.7,11-18,14c1.4,3.6,4,4.3,8,5c-22.6,46.5-38.8,91.7-56,145c-7,21.8-6.8,45.6-12,69
	c-3.9,17.5-2.4,54.9,1,71c1.8,8.7-0.6,19.1,4,25c2.5,7.2,22.3,16.8,29,21c2.3,19.8,0,41.4,0,62c0,13,0,26,0,39
	c-3.1,14.4-3.1,50.6,0,65c2.2,10-0.9,23.2,1,32c0,6,0,12,0,18c2.3,10.8,1.7,24.6,4,35c1.3,5.9-0.6,11.8,2,16
	c-0.7,8.7-8.1,10.4-12,16c-5.1,7.2-7.7,17.2-10,27c-3.1,13.6,1.9,30.7,6,39c1.3,2.7,5.2,6.4,6,9c2,6.8-5.5,21-3,32
	c3,13.4,5.7,25.8,12,36c1.3,2,5.2,4.8,6,7c1.3,3.4-1.5,7.9-2,10c-1.9,8.2,0,20,2,26c5.3,16,15.9,30.1,25,43c4.2,5.9,11.6,12.8,14,20
	c1,14,2,28,3,42c6.6,28.3,7.3,57.4,15,85c4.8,17,6.9,35.1,12,53c12.5,44.1,27.1,112.6,7,160c-7.5,17.6-21.6,26.6-34,39
	c-26.4,26.4-52.2,54-85,74c-6.4,3.9-15.2,7.5-22,10c-5.2,1.9-10.8,1.2-15,4c-0.3,0-0.7,0-1,0c-8.2-36.4-18.7-74.1-30-109
	c-12.7-39.2-19.6-79.8-32-118c-6.6-20.3-8.4-39.7-15-60c-19-58.8-30.9-122.2-50-181c-7-21.6-9-42.4-16-64
	c-25.1-77.4-39.8-160.5-65-238c-9-27.7-12-55.2-21-83c-19.2-59.3-30.6-123.7-50-183c-5.1-15.6-5.9-30.3-11-46
	c-7.8-24.1-11.8-50-20-75c-4.3-13.2-10.6-29.3-12-44c22.3,1.9,52.6,2,74,7c6.7,1.6,17.9,3.2,22,0c3.2-1,6.8-5.7,5-8
	c-0.6-3.4-1.2-3.1-2-6c-30.8-6.3-61.8-7.8-89-16c-8.9-2.7-20-2.2-27-7c-7.5-3.1-13.6-28-17-37c-8.8-23.5-15-50.9-23-75
	c-4.3-12.9-5.9-29.7-14-39c2.6-5,19.8-11.8,25-16c2.5-2,6.1-7.8,7-11c0-2.3,0-4.7,0-7c1.7-3.7,10.6-10.7,14-13
	c24.7-16.4,61.6-16.7,91-29c7.8-3.3,16.4-8.1,23-13c3.7-2.7,5.6-8.1,9-11c1.6-1.4,27.5-9.2,31-10c12.6-3,19.7,4.4,27,7
	c15.4,5.5,40.6,3.5,54-2c13.1-5.3,27-15.5,34-27c2.9-4.8,2.7-10.5,5-16c4-9.9,10.9-24.9,19-31c17.9-13.5,38.2-5.5,59-14
	c21.2-8.7,31.9-23.9,49-35c-1.7-19.5,6.1-37.1,21-42c1-0.8,0.2-0.4,2-1c5.5,11.6,0.8,19.4,4,33c1.2,4.8,4.4,7.7,6,11
	c0.7,4.3,1.3,8.7,2,13c2,7.2,4,15.7,7,23c11.4,27.9,26.3,52.3,43,75c6.9,9.3,17.1,16.9,24,26c10.2,13.4,24,28.5,38,38
	C709.9,906.8,686.9,919,683,922z M1214,628c-7.2,7.3-27,35.8-43,23c-3.6,3.8-4.7,8.8-7,14c-6.7,15-14,30-21,46
	c-15.5,35.4-32.3,72.2-53,103c-6,8.9-12.7,16.3-24,20c-7.1,2.3-24.8,5.3-27,11c0.3,1.3,0.7,2.7,1,4c-0.2,4.3-2,8.2-4,11
	c-4.6,6.4-13.7,9-17,17c-2.2,5.4,0.7,13-4,16c-5.4,2.3-13.2-7.4-18-10c2.2-11.1,13.3-21.4,19-30c12.5-18.8,24.9-39.6,34-61
	c3.3-10.3,6.7-20.7,10-31c0.7-5.7,1.3-11.3,2-17c2.7-9,7.4-19.7,10-30c5.3-20.7,3.1-42.5,10-61c9.2-24.5,29.5-29,31-62
	c6.6,0.9,12.4,3.5,19,5c8.6,1.9,23.9,0.5,31-1c26.8-5.8,55.7,5.6,61,22c0.3,0,0.7,0,1,0C1223.2,621.9,1217.4,624.5,1214,628z"/>
</svg>
