<?xml version="1.0" encoding="utf-8"?>
<!-- Generator: Adobe Illustrator 19.0.0, SVG Export Plug-In . SVG Version: 6.00 Build 0)  -->
<svg version="1.1" id="Layer_1" xmlns="http://www.w3.org/2000/svg" xmlns:xlink="http://www.w3.org/1999/xlink" x="0px" y="0px"
	 viewBox="0 0 577.7 996.7" style="enable-background:new 0 0 577.7 996.7;" xml:space="preserve">
<style type="text/css">
	.st0{fill-rule:evenodd;clip-rule:evenodd;}
</style>
<path class="st0" d="M36.7,29c-0.4-7.7-2.9-12.3-3-22c2.8-1.8,2.8-3.2,7-4c0.4,10.7,3.6,21.9,8,29c1.9,3,5.7,6.5,7,10
	c2.4,6.3-1.5,15.9,1,23c3.2,9.1,30.8,26.7,39,34c7.2,6.5,11.2,22.8,22,25c1.6-1.8,0.9-1.4,4-2c3.5,3.4,9,5.1,12,9
	c3.7,4.8,16.4,21.9,21,24c5.7,0,11.3,0,17,0c4.1,4.7,25.2,18.7,32,20c6.8-4.5,25.6-2.1,36-2c0.6-1.7,0.9-3.2,1-6
	c0.6-1-5.1-21.9-7-25c-1.3-1-2.7-2-4-3c0-5,0-10,0-15c-6-20.3,13.2-46.3,29-52c24.2-8.8,46.1,8.8,52,23c0.3,6.3,0.7,12.7,1,19
	c0.6,1.5,4.2,2.5,4,5c-0.3,4-1.7,18.4-4,22c-2.1,3.3-5.8,4.2-7,9c-1.8,7.1,3.8,14.3,5,20c3.1,1.1,8.4,1.1,13,1
	c3.6-2.1,10.1,0.2,15-1c4.2-1,13.1-1.9,18-3c5.3,0,10.7,0,16,0c11.8-3.2,21.5-10.8,33-14c7.7-2.1,17.6,1.8,24-1
	c8.6-3.8,13.5-15.6,21-21c3-2.2,6.8-4.4,12-4c1.2,0.1,1.8,1.9,4,1c3.7-4.7,7.3-9.3,11-14c10.9-11,22.7-21.3,34-32
	c0.3-6.7,0.7-13.3,1-20c2-4.3,7.9-7.2,10-12c3.3-7.6,5.5-18.3,7-26c2.3,0.3,2.5,0.5,4,1c1.8,4.4,1,16.2,4,20c1.3,0.9,2.5,0.9,5,1
	c4.2-4.6,20.7-22.9,26-24c0.8,1.8,1.8,4.5,3,6c1.7-2.6,2.2-3.3,6-4c0,0.3,0,0.7,0,1c0.3,0,0.7,0,1,0c-1.7,7.7-3.3,15.3-5,23
	c-2.8,4.5-9.8,7.8-14,11c-6.7,7-13.3,14-20,21c-3.1,2.3-6.7,4-9,7c-11.1,14.8-17.8,33-28,49c-5,7.9-19.3,12.7-20,23
	c5.5,8.9,2.1,31.2,5,43c1.5,5.9,1,14.5,3,22c6.7,25.3,5.9,38.5-17,47c-16.4,6-46-11.3-57,4c-3.1,4.5-3.3,10.1-6,15
	c-7,12.9-16.1,26.2-21,41c-2.6,7.8-0.7,13.9-3,22c-4.4,15.9-5.4,34.4-10,51c-2.7,8-5.3,16-8,24c-2.4,4.7-7,5.6-8,12
	c4.4,6.8,3.4,16.4,6,25c5.3,17.7,7.2,38.2,12,58c0.3,7.3,0.7,14.7,1,22c2,8.2,0.7,19.4,3,29c9.2,38.5,5,84.7,14,124
	c0,3.7,0,7.3,0,11c2.7,12.1,2.3,27.2,5,39c3.5,15.4,0.8,30.9,4,45c0,4.7,0,9.3,0,14c4,17.4,2.9,40.4,7,58c3,12.8-5.2,32.6-15,33
	c-3.1,1.9-11.6,2.3-15,3c0,4,0,8,0,12c-1.3,2-1.1,6.5-1,10c-6,3.8-11.7,9.5-12,19c1.5,0.5,1.7,0.7,4,1c1.8-1.3,5.2-1.3,7,0
	c8.8,2.6,15.1,10.3,15,22c-0.8,1-0.4,0.3-1,2c-2.9,1.9-8.2,6.6-13,6c-2.1-0.3-4.8-3.1-9-2c-5.6,1.5-12.7,5.5-19,7
	c-6.9,1.7-27.7-6.5-29-9c0-3.7,0-7.3,0-11c1.3-1.9,4.1-14,3-17c-0.8-2-5.1-3.6-6-6c0-3.3,0-6.7,0-10c-1.5-6.5-2.4-15.7-3-22
	c-12.6-0.2-24.4-3.5-38-2c0.7,10.8,3.6,21.8,6,31c1.9,7.2-1.9,13.1-3,18c-1.4,6.2,0.9,15.1,2,20c1.7,7.8-1,12.5-2,17
	c-6.2,3.1-31.4,12.2-42,9c-7.9-2.4-17.7-6.8-26-9c-15-4-33.1,1.1-33-18c2.8-3.1,3.5-7.6,6-11c3-2.3,6-4.7,9-7c6.5,0.4,14.2,1,22,1
	c0-0.3,0-0.7,0-1c0.3,0,0.7,0,1,0c0.7-5.7,1.3-11.3,2-17c-4.3-2.3-8.7-4.7-13-7c-1-6.7-2-13.3-3-20c-6.1-1.9-15.3-0.5-20-4
	c-2.3-1.7-3.9-5.9-6-8c0-11.5,1.9-21.3,4-31c1.8-8.3,0.5-17.4,2-24c0-7.7,0-15.3,0-23c0.4-17-0.4-40.1,3-56c3.9-18-2.6-40.3,1-57
	c0.7-45,1.3-90,2-135c3.8-18-0.1-41,4-59c4.3-18.7,9-36.6,9-60c0-5,0-10,0-15c-3.6-15.2-11.5-23.2-15-38c-0.3-9.7-0.7-19.3-1-29
	c-5.8-21.7-8.6-46.1-15-67c-3.2-10.5,2-22.5-6-28c-15.2-11.6-54.9,1.6-66-14c-4.7-5.9-3.1-20.6-3-31c0.1-22.5,4.7-41.9,5-67
	c-11.3-3.7-18.5-14.3-25-23c-14.5-19.5-27.2-42.7-40-64c-1.5-2.5-0.4-5.1-2-8c-5.1-9.5-25.2-15-31-25C1.3,33.3-5,2.5,6.7,0
	c1.9,3.4,3.5,8.5,6,12c1.6,2.2,4.7,1.5,7,3C26.1,19.3,26.7,27.9,36.7,29z"/>
</svg>
