<?xml version="1.0" encoding="utf-8"?>
<!-- Generator: Adobe Illustrator 19.0.0, SVG Export Plug-In . SVG Version: 6.00 Build 0)  -->
<svg version="1.1" id="Layer_1" xmlns="http://www.w3.org/2000/svg" xmlns:xlink="http://www.w3.org/1999/xlink" x="0px" y="0px"
	 viewBox="0 0 776 1200" style="enable-background:new 0 0 776 1200;" xml:space="preserve">
<style type="text/css">
	.st0{fill-rule:evenodd;clip-rule:evenodd;}
</style>
<path class="st0" d="M106,0c3.3,0,6.7,0,10,0c0,1,0,2,0,3c11.3,2.4,21.9,13.2,27,22c0.3,2,0.7,4,1,6c2.7,2.3,5.3,4.7,8,7
	c1.2,4.2-2.3,5.4-3,9c11.4,2.2,6.8,5.2,13,10c4.8,3.8,18,8.5,21,13c2.9,4.3-0.5,9,1,13c1.3,1,2.7,2,4,3c0.7,2.3,1.3,4.7,2,7
	c6.7,0.1,11.3,3,13,8c3.6,5.7-2,21-2,21c3.6,9.7,18.7,13.6,27,19c10.8,7,22.3,13.1,34,20c1.9,1.1,4.7,4.3,7,5c3.7-0.3,7.3-0.7,11-1
	c12.4,3.5,56.4,20,62,28c7.3,10.3,2.5,24.8,7,38c4.7,13.8,13.8,25.7,19,38c3,7.2,6.5,24.2,15,25c5.4-12.6,15.5-24.2,25-33
	c3.2-3,8.1-3.7,11-7c7.3-10.1,10.1-33.5,9-49c-4.4-3-4.7-5-13-5c-9-4.6-32.7,5.3-38-9c-0.6-1-1.5-2.7-1-5c0.5-2.3,3.4-5.7,4-8
	c2.2-8.1-4.5-12.2-3-16c1.2-3.6,6.5-19.8,6-21c-1.9-4.8-5.2-4.5-6-11c15.9-7.6,32.9-27.4,34-49c-3,0.3-6,0.7-9,1
	c-2.2-3.3-4.2-3.9-5-9c2-2.1,2.8-6.2,5-8c8.7-7.4,30.3-17.1,47-12c6,1.9,13.7,4.8,19,8c0.7,1,1.3,2,2,3c8,0,16,0,24,0
	c10.9,3.2,26.2,12.1,32,21c4.6-1.6,9.7-4.2,14-5c8.6-1.6,13.4,2.2,18,4c29.1,11.3,30.4,42.4,22,77c-1.8,7.2-0.8,15.4-2,21
	c-3.7,16.6,4,37.3,14,41c5,3.6,11.7,1.4,17,3c-0.6,1.8-0.2,1-1,2c-6.2,17.6-37.8,19.3-51,7c-17.1-15.9-15-55.5-9-82
	c2.9-12.7,1-34.8-7-38c0,0.3,0,0.7,0,1c-3,4.9,0.5,14.5-1,21c-2.1,8.8-4.7,21.4-9,29c-7,12.2-16.8,24-27,33
	c-12.5,11-24.3,15.7-25,39c6.8,2.5,17.3-5.7,31-6c2.9,4.3,8.2,9.8,10,15c0,5.7,0,11.3,0,17c-0.7,1.7-4.3,2.9-5,5c0,0,0.5,35.1,1,37
	c8.1,32.4,6.4,57.9-9,83c-11.1,18.1-19.1,35.6-27,58c-2,5.5-6.7,15.6-4,26c4.5,17.7,8.2,37,17,51c18.6,29.7,42.9,54.7,62,84
	c9.3,14.3,14.4,30.2,21,47c4.3,10.9,11.6,23.3,16,34c3.6,8.8,4.5,16.3,9,24c4.9,8.5,11.5,19.9,19,26c4.4,3.6,11.3,2.5,13,9
	c-4.5,3-7.6,7.9-12,11c-10.1,7.1-24,13.4-37,17c-23.8,6.7-55-3.2-74-2c-3.4,7.3,1.1,11.7,3,19c13,7.4,24.4,7.1,41,11
	c3.3,0,6.7,0,10,0c30.4,8.7,56.2,23.8,88,32c25.6,6.6,43.9-10.9,61-15c5-1.2,8.4,2.1,12,3c2.3,4.2,5.7,9,7,14c0,5,0,10,0,15
	c1.2,4.8,1.9,11.2,4,17c3.6,9.8,13.4,18.6,19,27c10.8,16.3,20.8,39.6,21,66c-0.7,0-1.3,0-2,0c-2.8,2.3-5.3,1.8-9,1
	c-4.3-8.7-7.3-21.3-13-29c-2.3-3-5.9-4.7-9-7c-5.9-4.4-10.6-12.1-17-16c-14.2-8.7-27.9-13.5-45-20c-1.6-0.6-3.4-3.4-5-4
	c-21.6-8.1-43.6-14.4-67-20c-20.2-4.8-42.6-3.7-62-8c-6,0-12,0-18,0c-13.6-3-32.2-3.8-46-7c-6.3-0.3-12.7-0.7-19-1
	c-2.3-0.7-3.4-2.4-7-3c-0.8,2.4-1,6.2-1,10c7,8.8,5.1,21.8,8,35c4.3,19.5,4.4,51.5,0,71c0,4.3,0,8.7,0,13c-3.1,12.7-11.6,45.2-8,62
	c3.8,17.7,2.1,36.9,8,52c4.1,10.5,14.2,16.4,16,29c-2.2,2.7-2.6,7.5-5,10c-11.3,11.7-37,15.3-51,25c-15.5,10.7-21.4,33.8-39,44
	c-14.3,0-28.7,0-43,0c-2.3-5.3-5.7-2.7-6-11c2-1.3,3.2-4,5-5c7.4-4.3,25.4-6.7,34-9c2.7-5.4,7.2-11.8,9-18c0-3.3,0-6.7,0-10
	c1-3.4,2.2-7.4,4-12c6.4-16.7,15.1-30.7,20-51c0-6.3,0-12.7,0-19c6.8-31,4.3-78.8-4-107c-1.8-6.1-6.2-14.7-8-21c0-3,0-6,0-9
	c-1.8-7.9-3.2-18.2-4-27c0-6.7,0-13.3,0-20c-2.2-9.1-4.4-20.1-8-29c-6.5-16.2-19.5-33.1-15-57c-1.2-0.9-1.1-0.8-2-2
	c-6,1.7-13.2,5.5-19,7c-14.5,3.8-52.7-3.4-63-8c-1.1-0.5-2.9-3.5-4-4c-5.5-2.6-11.6-1.4-14-7c29.7-10.8,25.9-32.1,33-64
	c0-6,0-12,0-18c1.7-7.9,2.2-17.9,4-26c0-7.3,0-14.7,0-22c5.9-26.6,5.9-58.1,12-84c0-4.3,0-8.7,0-13c2.2-8.9,5.7-21.9,8-30
	c0-2.7,0-5.3,0-8c3.1-9.5,8.5-16.6,9-30c-25.1-14.1-48.6-29.9-72-46c-17.6-12.1-28.4-32.5-52-40c-10.7-3.4-29.4,5-37,7
	c-4.7,0-9.3,0-14,0c-4.3-1.4-6.7-5.8-10-8c-3.7-2.5-7.2-1.2-12-3c-4.2-1.6-20.4-12.9-21-18c2.4-1,5.4-2,7-4c-4.5-2-9.8-1.1-11-7
	c0.9-0.9,1.3-1.8,2-3c5.4-0.7,12.4-3.8,20-2c4.9,1.1,15.5,4.1,23,2c2.3-0.7,5.7-3.3,8-4c7-2,18.6,0.5,23,0c0.3-1,0.7-2,1-3
	c-5.9-2.5-16.3-6.2-19-12c-1-1.4-1-3.3-1-6c2.4-1.3,2.8-1.8,7-2c2.7,2.4,5,1.4,9,3c8.8,3.5,20.5,9.4,28,15c11.8,8.8,17.4,25.3,29,34
	c17.6,13.3,42.2,23.5,65,31c7.7,2.6,13.3,1.6,21,4c6.3,2,13.6,6.8,21,8c0.9-0.9,1.8-1.3,3-2c0.9-7.1,3.6-12.4,5-18
	c3.4-13.7-1.6-31.6-4-40c-0.7-7-1.3-14-2-21c0.3-1.6,2-6.8,1-10c-1.9-6.1-5.4-16.6-7-23c0-7.7,0-15.3,0-23c-2.2-14.8-1.8-31-8-42
	c-4.6-8.2-14.2-13.8-19-22c-3.1-5.2-2.6-12.3-8-15c-1.7,0-3.3,0-5,0c-2.9-1.2-10.1-6.5-12-9c-4.2-5.3-5.4-12.2-9-18
	c-1-0.7-2-1.3-3-2c0-2,0-4,0-6c-2.3-4.5-17.9-9.9-23-13c-16.1-9.7-31.9-19.5-50-28c-6.6-3.1-10.8-9.1-20-10c0,0.7,0,1.3,0,2
	c1.9,1.8,3.7,5.6,3,7c-3.6,2.2-5.7,0.1-7,5c0.8,1.1,0.6,0.9,1,3c-3.9,1.3-10.6,1.1-16,1c0.7,6.1,3.2,4.9,4,11c-1.1,0.9-0.1-0.1-1,1
	c-4.3-0.2-11.4-0.7-14,1c-0.8,1.1-0.6,0.9-1,3c2.2,2,3.3,3.3,4,7c-1.7,0.6-3.2,0.9-6,1c-3.2-3.3-10.1-9-15-10
	c-2.4,4.6-3.9,9.9-10,11c-1.9-5.1-3.8-10.2-9-12c-3.2,5.2-6.4,10.9-15,11c-1.9-3.4-4-7.6-8-9c0,0.3,0,0.7,0,1
	c-3.7,5.2-9.6,21.9-17,19c-2.5-1.5-1.1,0.2-2-3c2.4-2.6,2.2-7.7,2-13c-0.3,0-0.7,0-1,0c0-0.3,0-0.7,0-1c-0.7,0-1.3,0-2,0
	c-4,6.3-14.7,12.5-24,13c0-0.3,0-0.7,0-1c1.7-1.8,1.7-2.5,2-6c-1.1-0.9-0.1,0.1-1-1c-1.8,0.6-1,0.2-2,1c-4.5,1.5-4.8,3.6-11,4
	c-4.4-3.9-9.4,0.4-16,1c0-3,0-6,0-9c-1.2-0.9-1.1-0.8-2-2c-0.7,0-1.3,0-2,0c-0.6,2.4-1.1,3.1-2,5c-0.7,0-1.3,0-2,0
	c-0.6-2.4-1.1-3.1-2-5c-1.8,0.6-1,0.2-2,1c-3,4-5.6,7.4-8,0c-10.4-13.2,11.9-22.7,15-30c-1.1-0.9-0.1,0.1-1-1c-4.9,1.2-8.5,2.1-14,1
	c-0.5-1.5-0.7-1.7-1-4c0.7,0,1.3,0,2,0c1.8-1.1,6.8-1.6,9-2c0.4-10.8,7.7-7.2,9-16c-4.5-1.9-8.7-3.1-12-6c0-0.3,0-0.7,0-1
	c0.3,0,0.7,0,1,0c1.7-1.2,4.5-1.6,6-3c-3.2-1.8-9.5-4.3-11-8c2.1-1.2,2.9-1.6,4-4c-5.1-1-7.6-2.1-8-8c3.3,0,6.7,0,10,0
	c0.5-1.5,0.7-1.7,1-4c-4-3-0.5-6.7-2-8c-1.3-2.5,0.4-0.7-2-2c-2.1-1.2-2.8-0.4-6,0c0-1,0-2,0-3c6.4-5.9,12.8-15.3,21-19
	c5-0.7,10-1.3,15-2c3.5-2.4,7.1-9.2,12-11c4.8-1.7,11.2,0.4,15-2c0.8-1.2,0.8-1.7,1-4c-9.5-5.2-14.2-4.1-24-6c-0.3-1-0.7-2-1-3
	c6-4.1,7.8-12.4,17-13c7.2-3.9,27.3,4.9,32,8c1.3,0.8,2.4,3.4,4,4c5,0.3,10,0.7,15,1c0.5-1.5,0.7-1.7,1-4c-4.8-5.6-1.5-6.6-3-11
	C109.2,3.7,106.7,4.1,106,0z"/>
</svg>
