<?xml version="1.0" encoding="utf-8"?>
<!-- Generator: Adobe Illustrator 19.0.0, SVG Export Plug-In . SVG Version: 6.00 Build 0)  -->
<svg version="1.1" id="Layer_1" xmlns="http://www.w3.org/2000/svg" xmlns:xlink="http://www.w3.org/1999/xlink" x="0px" y="0px"
	 viewBox="0 0 668.7 1489.3" style="enable-background:new 0 0 668.7 1489.3;" xml:space="preserve">
<g>
	<path d="M237,32C238.4,31.5,236.3,31.9,237,32L237,32z"/>
	<path d="M256,11.1c0,0,0-0.1,0-0.1C258.2,9.7,254.5,11.2,256,11.1z"/>
	<path d="M659,1366c-4.9-3.6-10-3.2-16-6c-17.2-7.9-39.5-15.8-56-25c0.5-5.7,4.3-7.8,8-10c-0.3-6.6-3.9-9.5-8-12
		c0.2-8.8,11.1-25.5,17-28c0-1,0-2,0-3c2.7,0,16.5,1.4,19,3c4.6,0.2,7.9,0.4,10-2c0.2-0.2-6.6-22.3-8-26c-7.8-19.9-12.3-46.8-18-68
		c-2.8-10.5-0.8-22.1-6-30c0.5-5.4,2.4-6.1,6-8c0.2-6.3-0.3-8.6-5-10c0-1,0-2,0-3c1,0,2,0,3,0c1-11.9,1.3-31.9,4-44c0-5,0-10,0-15
		c0.7-2.8,2.1-7.7,2-9c-0.3-5.6,1.1-8.1-3-10c0.9-3.8,2-3.6,5-5c0.1-7.4-1.5-9.4-6-12c0.3-6,0.7-12,1-18c5.5-16.6,3.1-68.6,8-91
		c1.6-7.2-0.8-17.8,1-21c0-7.8,3.8-10.8,8-14c-1.3-4.5-3-5.4-6-8c-0.3,0-0.7,0-1,0c-0.4-2,0.4-1.3,1-2c-0.4-10.8,0.6-14.2,7-18
		c-0.3-3-0.7-6-1-9c-3.2-0.6-2.9-0.9-5-2c0-2.7,0-5.3,0-8c4,0,8,0,12,0c2-2.7,6.6-5,8-8c0.3-3.3,0.7-6.7,1-10c0.7-1.6,4.3-3.5,5-5
		c1.7-3.5-0.8-5.5,0-8c0.7-2.3,15.8-22.1,18-24c-0.4-11.8-7.1-21.3-11-30c-4.4-9.8-4.2-19.9-10-28c0.4-3.7,0.8-3.7,2-6
		c0,0-6.2-25.5-8-30c-2.6-6.5-5.5-15.7-8-22c-0.3-3.7-0.7-7.3-1-11c-3.8-9-7.3-21.5-11-31c-0.3-3.7-0.7-7.3-1-11
		c-1.2-2.9-2.9-3.4-3-9c-1.7,0.6-1,0.2-2,1c-8.8-1.4-11.8-30-16-40c-11.4-27-17.9-59.1-29-86c-0.3-3.3-0.7-6.7-1-10
		c-3.6-8.6-7.3-25.7-12-33c0.3-6,3.3-6.5,10-7c-0.1-7.9,2-7.6,2-17c-3.7-0.7-4.3-1.7-7-3c-8.3-21.7-12.9-42.9-23-63
		c-0.8-1.5-4.1-3.4-5-5c-3.8-7-5.9-12.5-10-19c-2.1-3.4-6.7-5.4-9-9c-1,0-2,0-3,0c0-1,0-2,0-3c-8.7-1.8-15.6-10.5-23-14
		c-2.3-0.3-4.7-0.7-7-1c-3.2-1.6-8.2-4.9-12-6c-2,0-4,0-6,0c-0.5-0.2-2.2-2.7-3-3c-2.7,0-5.3,0-8,0c-3.1-1.6-5.9-6.3-9-8
		c-3.5-1.9-16.2-3.5-18-6c-9,0.1-21.8,1.4-29-1c-3.8-9.9-8-25.7-10-36c5.6-0.7,9.8-2.5,15-3c-0.6-9.1-4.4-17.1-7-24
		c1.3-7.8-3.2-19.4-3-31c6.8-0.3,6.7-2.7,10-6c0.2-5,0.6-9.8-2-12c0-0.3,0-0.7,0-1c-0.3,0-0.7,0-1,0c-1.2,2.2-2.8,4.8-4,7
		c-0.7,0-1.3,0-2,0c-2.6-6.7-5.9-14.3-7-20c-2.3-11.5,3-20.6-5-26c3.2-9.5,8.7-24.7,5-31c1.7-1.3-0.4-2.4,1-4c2.9-1.8,0.4-0.9,2-4
		c1-0.3,2-0.7,3-1c2.6-6.5-0.3-32.8,2-43c1.4-6.5,0.5-14,1-21c0.1-5.7-1.3-11.7-3-15c-2.3,0.2-1.8,2.2-3,3c-3.9,6.4-7.6,18.1-12,24
		c-0.6,1.7-0.2,1-1,2c-1.8-10.1-5.2-27.7-9.4-36.8c-0.1,0.2-0.5-0.1-0.6-1.2c0.2,0.4,0.4,0.8,0.6,1.2c0.1-0.2,0-1-0.6-2.2
		c-6.9,4.3-13.4,24.5-19,32c0,0.3,0,0.7,0,1c-0.3,0-0.7,0-1,0c-3.1-12.7-7.9-27.7-14-38c-6.7,4.1-11.4,27.2-17,35c0,0.3,0,0.7,0,1
		c-0.3,0-0.7,0-1,0c-5.6-11.5-14.8-22.1-21-33c-2.5,0.1,0.3,0.1-1,1c-4,5-10.3,30.9-11,39c-0.3,0-0.7,0-1,0
		c-3.3-9.9-13.8-23.6-19-32c-0.5,0.1-0.8,0.1-1,0.1c-1.3,10-4.7,27.9-6,37.9c-0.3,0-0.7,0-1,0c-2.1-4.4-8.6-13.2-11-17
		c-0.5,0-0.8,0-1,0c0,0,0,0,0,0c0.1,32.4,3.2,61.3,11,84c2.6,7.6-3.5,14.7-5,19c-2.8,7.9,1.8,31.3,2,32c0,7.7,0,15.3,0,23
		c1.5,17.1,1,39.8-12,45c0.1,2.5,0.1,3.7,1,5c5.8,4.3,14.3,1.2,20,4c4.7,2.3,4.1,5.8,12,6c-1.2,5-4.1,8.4-6,13c-4-0.3-8-0.7-12-1
		c-0.4-2.9-0.7-4.3-2-6c-0.3-0.7-0.7-1.3-1-2c-15-0.1-28.3,0-39,5c-3,0.3-6,0.7-9,1c-4.7,2.5-14,9.5-17,14c-1,1.5,0.3,3-1,4
		c-4.4,3.3-10,3.3-15,6c-10.1,5.4-20.3,13.7-29,21c-0.8,1.1-0.6,0.9-1,3c-3.7,0.7-3.5,1.5-6,3c0,1,0,2,0,3c-4.6,0.9-4.9,2.9-8,5
		c0,1,0,2,0,3c-1,0-2,0-3,0c-1.3,6.4-6.3,7.6-9,12c-7.4,12-12.3,24.3-24,32c1.2,3.4-0.9,3.4,3,5c-2.8,12.8-7.9,18.8-16,28
		c-2.7,2.3-5.3,4.7-8,7c-12.1,19.3-28.5,35.7-40,55c-5.9,9.8-14.2,28.9-23,35c0,2,0,4,0,6c1.7,0,3.3,0,5,0c1.8,6.9,11.5,8.5,17,12
		c3.6,2.3,7.4,6.9,11,9c12.1,7.1,23.5,11.3,36,18c3.6,1.9,4.8,4.9,10,6c-0.7,2.3-1,2.2-2,4c-1,0-2,0-3,0c0.6,6.5,27,19.1,34,20
		c0.8,9.8,2.8,16.8,0,23c1.2,4.1,1.8,5,0,9c1.4,4.7,1.9,9.1,0,13c1.6,6,2.2,22.7,0,27c1.6,5.9,2.1,22.8,0,27c1.6,5.8,2.1,22.8,0,27
		c0.5,1.8,2.2,7.2,2,8c-0.1,0.6-2.4,0.5-2,2c0.3,1.1,2.5,0.4,2,3c-0.1,0.6-2.4,0.5-2,2c1.6,6.3,1.5,12.8,0,20c-0.3,36-0.7,72-1,108
		c-2.6,7.9,1.5,35.7-3,56c0,8,0,16,0,24c-2.7,9.2-1.3,39.1-5,56c-0.3,12.3-0.7,24.7-1,37c-0.7,0.3-1.3,0.7-2,1c1,2.8,0.8,23.5-3,31
		c0.6,1.5,2.6,1.7,2,4c-6.2,24.8-6,56.3-12,81c0,3.3,0,6.7,0,10c-4.5,12.3-3.7,24.1-8,36c-0.3,4.7-0.7,9.3-1,14
		c-4.4,11.3-6.8,26.9-11,38c-0.3,3.3-0.7,6.7-1,10c-4.9,11.6-9.2,25.9-14,37c-0.3,2.7-0.7,5.3-1,8c-1.2,2.6-4.9,6.3-6,9
		c-6.9,16.5-17.1,40.1-30,50c1.3,4.8,16.4,11.9,21,14c3,0.3,6,0.7,9,1c12.8,6.6,30.8,10.8,46,15c7.9,2.2,16.6-0.7,23,3
		c0.7,0,1.3,0,2,0c-2,7.5-7.6,10.9-10,17c-2.7,6.9-0.4,28.6,0,31c2.5,14.4-1.8,27.7,3,35c0.6,7,14.2,15.5,21,16c0,1,0,2,0,3
		c9,1.8,13.3,7.9,23,9c0,1,0,2,0,3c3.7-0.2,17.7,1.7,21-2c0,0,3.9,0.2,2,1c-0.3,0-0.7,0-1,0c0,0.3,0,0.7,0,1c2.5-1.5,1.2,0.2,2-3
		c16.4-0.2,30.5-5,42-6c0.3-4.7,5.2-29.2,2-37c-1-0.7-2-1.3-3-2c-2-4.1-1-7.8-3-12c-4.8-9.8-10.8-22-15-32c0-3.7,0-7.3,0-11
		c-1.2-3.4-1.9-13.6-4-17c2.1-2.4,27.9-13.9,32-15c-0.1-4.3-0.2-6.1,2-8c0-8.7,0-17.3,0-26c3.1-4.8,13.3-3.4,19-6
		c20.1-9.1,38.6-21.6,57-32c0-2.5,2-9,2-9c-0.5-1.4-1.6-1.1-2-4c13.3,0,15.5,3.7,27,4c0.4,2.1,0.2,1.9,1,3c0,6,0,12,0,18
		c2.9,6.4,14.6,8.7,21,12c9,4.7,21,10.2,31,14c4.7,0.3,9.3,0.7,14,1c5.3,2,19.3,4.1,23,5c8.8,2.1,37.2-0.6,41-3c3.6-0.3,3.3-0.1,5-2
		c0.1,0-1-6.1-1-10c7.2,0.6,10.4,2.9,18,3c0.9,1.1-0.1,0.1,1,1c0,5.6,1.7,8.9,1,12c-4.2,18.4-12.2,35.1-8,49c1.3,4.3-1,9.9,1,13
		c7.6,6.4,22.8,5.4,32,10c22.7,11.3,60.4,15.4,85,21c4,0,8,0,12,0c0.3,0.7,0.7,1.3,1,2c7.7,0.3,15.3,0.7,23,1c1.1,0.3,0.4,2.5,3,2
		c10.5-2,19.9-11.8,31-14c0-1,0-2,0-3c1,0,2,0,3,0C671.1,1397.7,667.3,1372.1,659,1366z M581,1028c0-3.3,0-6.7,0-10
		c-2.7-4.4-2.1-15.9-4-23c0-4.3,0-8.7,0-13c-0.7,0-1.3,0-2,0c0-5.7,0-11.3,0-17c-0.4-1.8-2.5-6-3-7c-0.5-1,1.6-6,2-7
		c-3.2-6.6-2.3-21-5-28c0-6,0-12,0-18c-2.3-9.8-2-37.1-6-48c-3.6-9.6,1.9-15.9-3-25c-0.3-13.3-0.7-26.7-1-40c-1.6-7.1-2.1-23.5-5-31
		c-2.3-5.9,0.3-16.9-1-22c0-6.3,0-12.7,0-19c-1.7-4.7-1.2-15.7-2-20c-0.9-4.9-2.9-8.1-3-14c0.7,0,1.3,0,2,0
		c11.3,20.1,39.8,38.2,44,65c-3.8,4.4-4.2,10.4-7,16c-3,6.2-9.7,14.2-12,21c-1.7,4.9,3.1,19.1,2,21c-3.2,5.5-4.1,5.1-4,15
		c9.2,7.2,7.6,23,23,26c0,3,0,6,0,9c-4.8,1.2-7.1,4.1-8,9c2.7,1.2,3.9,3.2,6,5c-0.3,5.7-0.7,11.3-1,17c-1,0-2,0-3,0
		c-1.6,3.6-2.9,3.8-3,10c1.5,0.8,3.3,1.5,4,3c1.2,2.6,0.6,31.4-1,36c-5.9,16.8-1.7,62.5-7,89C582.3,1028,581.7,1028,581,1028z"/>
</g>
</svg>
