<?xml version="1.0" encoding="utf-8"?>
<!-- Generator: Adobe Illustrator 19.0.0, SVG Export Plug-In . SVG Version: 6.00 Build 0)  -->
<svg version="1.1" id="Layer_1" xmlns="http://www.w3.org/2000/svg" xmlns:xlink="http://www.w3.org/1999/xlink" x="0px" y="0px"
	 viewBox="0 0 897.3 1501.1" style="enable-background:new 0 0 897.3 1501.1;" xml:space="preserve">
<style type="text/css">
	.st0{fill-rule:evenodd;clip-rule:evenodd;}
</style>
<path class="st0" d="M464,43c4.9-0.7,5.4-1.7,10-1c2.3,4,4.7,8.7,6,14c0,3,0,6,0,9c1.1,3,5.4,5.4,7,8c6.5,10.4,7.4,26.9,2,39
	c-6.6,15-23,12.3-23,34c3.6,5.4,12.1,36.4,9,48c-2.3,8.6-9.3,17.1-3,27c6.1,9.5,18.3,13,28,19c21.2,13.2,45.9,27.6,58,50
	c3.3,6.1,10.3,16.8,7,29c-1,3.6-3.3,6.2-4,11c0.7,0,1.3,0,2,0c10.2-6.6,26,7,30,11c21.7,22,15.3,58.9-11,71c0,0.3,0,0.7,0,1
	c15.9,0.5,31.1,9.3,46,7c14.3-30.3,39.4-62.9,79-68c0.9,1.2,0.8,1.1,2,2c-0.6,1.8-0.2,1-1,2c-3.6,13.3-24.5,15.1-33,28
	c0.3,0,0.7,0,1,0c11.9-11.4,30.6-6.2,51-6c0.9,1.2,0.8,1.1,2,2c-1,2.9-1.8,6.2-4,8c-3.1,6.5-13,6.6-21,8c1,0.8,0.3,0.4,2,1
	c4.4,3.3,14.6,3.8,16,10c-9.3,5.1-20.4-1.3-30,3c-5.6,2.5-8.5,9.2-12,14c-6.5,8.8-16.3,20.6-27,25c-4.3,0.7-8.7,1.3-13,2
	c-9.5,2.9-20.9,6.4-31,9c-11.1,2.9-23.5,2.6-34,5c-8.6,2-17.8-1.1-24,0c-12.9,2.3-26.8-3.6-37-3c-6.1,25.2-36.8,53.6-74,43
	c-10.4-3-18.2-11.9-28-14c-6.5,20.4-32.3,25.7-58,25c0,0.3,0,0.7,0,1c0.7,0,1.3,0,2,0c7.5,12,20.8,19,29,30
	c11.8,15.8,20.1,35.7,29,54c12.4,25.3,16.8,54.6,27,82c23.9,64.2,43.5,130.1,77,184c6.4,10.3,11.1,20.3,18,30c4.9,6.9,12,13.2,17,20
	c4,5.4,8.5,12.3,14,16c20.8,14.1,58.4,22.7,86,30c15.8,4.2,34.6,2.2,49,7c3.8,1.3,13.1-0.6,20,1c14.4,3.3,31.1,2.7,45,6
	c6.3,0.3,12.7,0.7,19,1c37.2,9.1,78.9,7.2,97,35c25.4,39,10.7,117,3,159c0.3,18.7,0.7,37.3,1,56c-3.2,18.7-5.8,41.2-13,58
	c-3.8,8.9-10.8,18.2-16,26c-37.4,56.4-78.1,97-144,125c-30.5,13-67,18.5-100,28c-31.2,9-65.3,8.3-97,16c-6.7,0.3-13.3,0.7-20,1
	c-18.9,4.4-35.8,12.1-55,17c-13.4,3.4-31.9,1-47,1c-2.3-4.4-2.9-6.1-10-6c-6.5,4.2-16.4,2.1-25,4c-23.9,5.3-73.3,3.8-92-4
	c-12.1-5-24.8-22.6-37-23c-4-2.4-10.9-0.6-16-2c-9-3-18-6-27-9c-35.1-15.6-65.1-56.9-75-98c-2.7-11.2,3.7-20.1,6-27
	c5.8-17.2,10.8-34.6,16-51c16.2-51.3,23.5-108.9,34-165c1.6-8.4-0.5-21.7,2-33c9.2-41.5,6.1-113.5-3-152c-3.4-14.3-1.9-29.7-5-43
	c-0.3-7.3-0.7-14.7-1-22c-4.8-21.8-1.3-47.4-6-68c0-9,0-18,0-27c-2.9-13.2-1-32-1-47c0-13-1.6-29.7,1-41c1.9-8.4-0.7-19.8,1-27
	c0-6.7,0-13.3,0-20c5.3-23.4,2.9-49.2,9-72c8.8-32.7,27.9-46.6,41-74c-0.3,0-0.7,0-1,0c-7,13.8-31.6,38.7-44,48
	c-14.8,11.1-26.5,32.1-42,42c-3.5,2.2-7.8,1.8-11,4c-7.4,5.1-17.7,14.5-31,13c-4.1-0.5-10.9-3-15-4c-8.3-0.7-16.7-1.3-25-2
	c-0.6-1.6-0.8-2.4-1-5c0.8-1,0.4-0.3,1-2c3.2-1.5,12.2-4,15-6c-6.6-1.5-11.4-6.6-17-9c-12-5.1-35.7-0.3-36-17c0.7,0,1.3,0,2,0
	c7.1-4.7,32.3,3.5,38,5c0-0.3,0-0.7,0-1c-4.4-2.8-6-8.1-10-11c-8.9-6.4-24.6-6.3-25-21c1.8-1,1.7-1.3,4-2c0.9-0.5,29.8,0.6,34,2
	c6.5,2.2,10,7.6,15,11c11.7,7.8,29.3,15.4,47,16c7.5-12,17.6-23.4,25-36c6.1-10.4,9-21.8,14-33c10.9-24.8,29.4-56.6,48-74
	c0-2,0-4,0-6c-12.8-3.9-27-22.2-22-43c1.3-5.2,6.7-13.8,5-18c-2.2-7.5-9-12.9-12-20c-5.6-13.5-5.3-36.8,2-48c3.3-5,8.8-7.9,13-12
	c5.2-0.3,5.5-0.2,11,0c1.7,2,3.3,4,5,6c-16.7-75.3,46.5-95.8,76-135c10.7-14.3,20.5-31.7,29-48c6.5-12.5,12.9-28.4,23-37
	c8.9-7.5,27.9-18.7,39-23c7-2.7,12.6-2.4,20-5c9-3.2,19.4-7.7,31-8c0,0.3,0,0.7,0,1c0.3,0,0.7,0,1,0c0.7,3.3,1.3,6.7,2,10
	c1.6,0.6,2.4,0.8,5,1c2-2.2,3.8-2.8,5-6c2.1-3,1.6-6,2-9c11-6.7,19.6-11,38-11c0,0.3,0,0.7,0,1c0.3,0,0.7,0,1,0
	c0.3,7.9,6.1,20.6,5,26C469.8,32.7,464.7,35.3,464,43z"/>
</svg>
